<?xml version="1.0" encoding="UTF-8" standalone="no"?>
<!-- Created with Inkscape (http://www.inkscape.org/) -->

<svg
   width="88"
   height="123"
   viewBox="0 0 23.283333 32.543751"
   version="1.1"
   id="svg5"
   inkscape:version="1.1 (c68e22c387, 2021-05-23)"
   sodipodi:docname="tina.svg"
   xmlns:inkscape="http://www.inkscape.org/namespaces/inkscape"
   xmlns:sodipodi="http://sodipodi.sourceforge.net/DTD/sodipodi-0.dtd"
   xmlns="http://www.w3.org/2000/svg"
   xmlns:svg="http://www.w3.org/2000/svg">
  <sodipodi:namedview
     id="namedview7"
     pagecolor="#ffffff"
     bordercolor="#666666"
     borderopacity="1.0"
     inkscape:pageshadow="2"
     inkscape:pageopacity="0.0"
     inkscape:pagecheckerboard="0"
     inkscape:document-units="mm"
     showgrid="false"
     inkscape:zoom="2.2652217"
     inkscape:cx="168.19546"
     inkscape:cy="134.2032"
     inkscape:window-width="2560"
     inkscape:window-height="1346"
     inkscape:window-x="-11"
     inkscape:window-y="1609"
     inkscape:window-maximized="1"
     inkscape:current-layer="layer1"
     units="px"
     width="88px" />
  <defs
     id="defs2" />
  <g
     inkscape:label="Layer 1"
     inkscape:groupmode="layer"
     id="layer1">
    <path
       style="fill:#000000;fill-opacity:1;stroke:#000000;stroke-width:0.264584px;stroke-linecap:butt;stroke-linejoin:miter;stroke-opacity:1"
       d="m 2.7475182,32.447879 c 0,0 -1.4323292,-3.507908 -1.4323292,-4.180256 0,-0.672348 0.9353991,-3.624835 0.9353991,-5.788044 0,-2.163208 -0.4185411,-3.247156 -2.04618379,-3.683303 0,0 0.93539809,-1.812417 2.16310809,-2.104743 1.2277111,-0.292325 7.5416489,-0.380023 9.3247516,-0.906209 1.783103,-0.526187 3.215432,-0.467721 3.595437,-1.49086 0.380005,-1.023139 1.432329,-3.157116 1.841565,-7.1035111 0.409238,-3.9463948 0.672318,-4.8526044 1.140018,-5.4664874 0.467698,-0.6138841 1.607715,-1.49086075 2.981581,-1.49086075 0,0 -1.052323,1.69548835 -0.08769,2.71862775 0.964629,1.0231394 1.95849,1.3446969 1.95849,1.3446969 l -0.467701,1.2277681 c 0,0 -0.555393,-0.3215585 -1.052323,0.3507905 -0.496931,0.6723489 -0.4677,2.3678363 -0.409237,3.6833012 0.05846,1.3154648 0.73078,8.6528368 0.73078,8.6528368 0,0 -2.250803,4.764906 -2.689271,5.729581 -0.438468,0.964673 -1.052322,2.338604 -0.964628,3.683301 0.08769,1.344698 0.643086,3.566372 1.432328,4.764907 l -1.900028,-0.05846 c 0,0 -2.747732,-3.332513 -3.1862,-4.589512 -0.438468,-1.257 -0.263081,-3.18635 -0.263081,-3.18635 0,0 -5.290847,-0.204628 -5.9923943,0.02923 C 7.6583604,24.81818 6.1091068,25.432066 5.3783269,26.484437 4.647547,27.536809 4.062923,29.787715 3.9752292,31.395506"
       id="path869"
       sodipodi:nodetypes="csscssssscsccsscssccscssc" />
    <path
       style="fill:#000000;fill-opacity:1;stroke:#000000;stroke-width:0.264584px;stroke-linecap:butt;stroke-linejoin:miter;stroke-opacity:1"
       d="M 3.9752282,31.395504 3.9459972,32.506343 2.7475178,32.44788"
       id="path873" />
    <path
       style="fill:#000000;fill-opacity:1;stroke:#000000;stroke-width:0.264584px;stroke-linecap:butt;stroke-linejoin:miter;stroke-opacity:1"
       d="m 7.9214398,32.477113 c 0,0 -1.5784863,-1.227768 -2.3677274,-5.028 0,0 0.5261628,-1.315465 2.2800326,-1.841651 0,0 -0.087692,2.601697 0.5553943,4.151023 0.6430861,1.549325 1.22771,2.718628 1.22771,2.718628 z"
       id="path879"
       sodipodi:nodetypes="cccscc" />
  </g>
</svg>
